HIERARCHY
ROOT root_translation_joint
{
	OFFSET	0	0	0
	CHANNELS 6 Xposition Yposition Zposition Zrotation Xrotation Yrotation
	JOINT Spine_x_joint
	{
		OFFSET	0	0	0.909008
		CHANNELS 3  Zrotation Xrotation Yrotation
		JOINT Head_x_joint
		{
			OFFSET	0	0	1.59751
			CHANNELS 3  Zrotation Xrotation Yrotation
			JOINT Headendsite_x_joint
			{
				OFFSET	0	0	0.452755
				CHANNELS 3  Zrotation Xrotation Yrotation
				End Site
				{
					OFFSET	0	0	0.0001
				}
			}
		}
		JOINT LeftShoulder_x_joint
		{
			OFFSET	0	0	1.25984
			CHANNELS 3  Zrotation Xrotation Yrotation
			JOINT LeftArm_x_joint
			{
				OFFSET	-0.7874	0	0
				CHANNELS 3  Zrotation Xrotation Yrotation
				JOINT LeftForeArm_x_joint
				{
					OFFSET	-1.29921	0	0
					CHANNELS 3  Zrotation Xrotation Yrotation
					JOINT LeftHand_x_joint
					{
						OFFSET	-1.03081	0	0
						CHANNELS 3  Zrotation Xrotation Yrotation
						JOINT LeftHandPinky1_x_joint
						{
							OFFSET	-0.281979	-0.013815	0
							CHANNELS 3  Zrotation Xrotation Yrotation
							JOINT LeftHandPinky1endsite_x_joint
							{
								OFFSET	-0.19685	0	0
								CHANNELS 3  Zrotation Xrotation Yrotation
								End Site
								{
									OFFSET	-0.0001	0	0
								}
							}
						}
						JOINT LeftHandIndex1_x_joint
						{
							OFFSET	-0.414743	0.013815	0
							CHANNELS 3  Zrotation Xrotation Yrotation
							JOINT LeftHandIndex1endsite_x_joint
							{
								OFFSET	-0.23622	0	0
								CHANNELS 3  Zrotation Xrotation Yrotation
								End Site
								{
									OFFSET	-0.0001	0	0
								}
							}
						}
					}
				}
			}
		}
		JOINT RightShoulder_x_joint
		{
			OFFSET	0	0	1.25984
			CHANNELS 3  Zrotation Xrotation Yrotation
			JOINT RightArm_x_joint
			{
				OFFSET	0.7874	0	0
				CHANNELS 3  Zrotation Xrotation Yrotation
				JOINT RightForeArm_x_joint
				{
					OFFSET	1.29921	0	0
					CHANNELS 3  Zrotation Xrotation Yrotation
					JOINT RightHand_x_joint
					{
						OFFSET	1.03081	0	0
						CHANNELS 3  Zrotation Xrotation Yrotation
						JOINT RightHandPinky1_x_joint
						{
							OFFSET	0.294832	-0.017528	0
							CHANNELS 3  Zrotation Xrotation Yrotation
							JOINT RightHandPinky1endsite_x_joint
							{
								OFFSET	0.19685	0	0
								CHANNELS 3  Zrotation Xrotation Yrotation
								End Site
								{
									OFFSET	0.0001	0	0
								}
							}
						}
						JOINT RightHandIndex1_x_joint
						{
							OFFSET	0.346188	0.017528	0
							CHANNELS 3  Zrotation Xrotation Yrotation
							JOINT RightHandIndex1endsite_x_joint
							{
								OFFSET	0.23622	0	0
								CHANNELS 3  Zrotation Xrotation Yrotation
								End Site
								{
									OFFSET	0.0001	0	0
								}
							}
						}
					}
				}
			}
		}
	}
	JOINT LeftUpLeg_x_joint
	{
		OFFSET	-0.408853	0	0
		CHANNELS 3  Zrotation Xrotation Yrotation
		JOINT LeftLeg_x_joint
		{
			OFFSET	0	0	-1.73605
			CHANNELS 3  Zrotation Xrotation Yrotation
			JOINT LeftFoot_x_joint
			{
				OFFSET	0	0	-1.61351
				CHANNELS 3  Zrotation Xrotation Yrotation
				JOINT LeftToeBase_x_joint
				{
					OFFSET	0	0.510779	-0.136863
					CHANNELS 3  Zrotation Xrotation Yrotation
					JOINT LeftToeBaseendsite_x_joint
					{
						OFFSET	0	0.177165	0
						CHANNELS 3  Zrotation Xrotation Yrotation
						End Site
						{
							OFFSET	0	0.0001	0
						}
					}
				}
			}
		}
	}
	JOINT RightUpLeg_x_joint
	{
		OFFSET	0.408853	0	0
		CHANNELS 3  Zrotation Xrotation Yrotation
		JOINT RightLeg_x_joint
		{
			OFFSET	0	0	-1.73605
			CHANNELS 3  Zrotation Xrotation Yrotation
			JOINT RightFoot_x_joint
			{
				OFFSET	0	0	-1.61351
				CHANNELS 3  Zrotation Xrotation Yrotation
				JOINT RightToeBase_x_joint
				{
					OFFSET	0	0.510779	-0.136863
					CHANNELS 3  Zrotation Xrotation Yrotation
					JOINT RightToeBaseendsite_x_joint
					{
						OFFSET	0	0.177165	0
						CHANNELS 3  Zrotation Xrotation Yrotation
						End Site
						{
							OFFSET	0	0.0001	0
						}
					}
				}
			}
		}
	}
}
MOTION
Frames:	14
Frame Time: 1
-3.32506	3.55387	3.50159	-71.5421	2.59015	-88.6424	-10.6624	-30.2195	-8.07706	21.2352	-9.96058	-1.85224	-0	0	-0	9.91248	-35.5712	7.3153	-2.32012	36.3612	-78.0368	-38.3385	-28.19	-0	10.2251	2.64588	14.3549	-1.93866	2.76769	-54.9693	-0	0	-0	-12.1728	14.375	-49.0136	-0	0	-0	-3.05572	-24.6701	-5.23039	36.1585	19.6665	60.6681	32.8379	23.6444	6.07604e-15	-16.6485	6.2779	-20.0865	-3.83256	-4.06305	46.6057	-0	0	-0	10.2286	8.52788	39.4137	-0	0	-0	-0.450747	-16.4219	-5.40788	3.97569e-16	-13.9678	-0	4.84514	5.40518	6.81674	1.05416e-15	9.88432	8.0712e-16	-0	0	-0	-10.8887	0.174556	-9.46061	1.38572e-14	-57.5255	8.88549e-15	-2.32741	2.47708	6.34562	7.56864e-15	20.79	-3.40207e-15	-0	0	-0
-3.18683	3.54848	3.49297	-71.6533	1.69724	-88.3976	-11.6364	-29.8484	-8.40954	21.2901	-9.60062	-1.64287	-0	0	-0	9.74019	-34.6456	7.73634	-4.42895	37.7738	-75.943	-42.2519	-24.3649	-4.3644e-15	9.42281	2.46777	14.5425	-3.18989	3.79858	-49.9192	-0	0	-0	-13.0236	14.2122	-46.7062	-0	0	-0	-3.53836	-25.3852	-5.02232	35.4742	18.8963	61.2766	32.4903	23.7774	-8.68892e-15	-16.9696	6.26803	-19.6867	-3.51932	-3.75192	46.7756	-0	0	-0	10.8415	8.87902	38.8671	-0	0	-0	-2.01912	-19.0741	-6.0309	2.42476e-15	-12.6944	-1.63012e-15	4.80619	6.88757	6.54218	2.38542e-15	9.39089	-0	-0	0	-0	-11.2415	2.54746	-8.08646	4.87225e-15	-49.2627	8.52903e-15	-2.97631	4.00439	5.43468	5.78317e-15	19.9718	1.69203e-15	-0	0	-0
-3.04793	3.53458	3.48686	-71.9087	-0.679382	-87.6063	-12.6994	-29.2232	-9.02595	21.7257	-9.18358	-1.4049	-0	0	-0	9.98227	-34.1032	8.3246	-6.43571	39.0747	-74.0088	-46.7146	-22.2321	-7.73097e-15	8.69807	2.35248	15.0195	-3.20185	3.37971	-46.5086	-0	0	-0	-13.2889	13.8903	-45.4661	-0	0	-0	-3.85093	-26.2308	-4.75239	35.2123	18.2038	61.5283	31.9771	23.8938	-0	-17.2118	6.23838	-19.3303	-3.46597	-3.66442	46.5359	-0	0	-0	11.1094	9.05582	38.714	-0	0	-0	-3.15917	-21.2882	-6.57868	2.21612e-15	-12.0194	-8.12962e-16	4.38773	8.33826	6.40084	-3.97569e-16	9.93916	-0	-0	0	-0	-11.1954	3.38706	-7.02918	3.73885e-15	-37.1198	-6.98037e-15	-2.89559	3.82403	6.30804	9.26067e-15	19.461	8.4332e-16	-0	0	-0
-2.90591	3.51497	3.47952	-72.2336	-1.37296	-86.924	-13.7634	-28.4653	-9.92097	22.396	-8.93784	-1.19152	-0	0	-0	10.0729	-33.2777	8.89357	-7.92138	39.4586	-72.6848	-51.1889	-20.8808	6.38271e-15	8.17742	2.32552	15.768	-2.12908	2.1663	-45.5647	-0	0	-0	-13.5465	14.0789	-45.2754	-0	0	-0	-4.10891	-26.6373	-4.66445	34.8666	17.5921	62.1308	30.9246	23.7392	-1.73727e-15	-17.4157	6.17622	-18.9314	-3.47086	-3.6719	46.5592	-0	0	-0	11.1389	9.14134	38.8994	-0	0	-0	-4.87944	-23.2049	-7.75273	4.62122e-16	-11.8273	-1.62477e-15	4.36793	9.7485	6.57504	-3.97569e-16	10.4056	-0	-0	0	-0	-11.2227	2.8378	-6.73069	1.26866e-15	-22.0222	-8.5772e-16	-0.505133	2.66626	6.75341	1.05633e-15	18.5597	1.67752e-15	-0	0	-0
-2.76103	3.49113	3.475	-72.6278	-2.6546	-86.1113	-14.4489	-27.7145	-10.4003	23.1278	-8.79486	-1.15612	-0	0	-0	9.72469	-31.9396	8.99259	-9.32465	38.8053	-71.5254	-54.9601	-19.8998	7.61068e-15	7.83648	2.29286	16.208	-2.56705	2.64045	-45.7794	-0	0	-0	-13.4675	13.9584	-45.2068	-0	0	-0	-4.34152	-26.4677	-4.76131	34.2819	16.951	63.0207	29.3788	23.2666	-8.65527e-16	-17.9677	6.0447	-17.989	-3.34349	-3.51178	46.3561	-0	0	-0	11.5428	9.36448	38.5443	-0	0	-0	-5.90853	-24.902	-8.40928	3.97569e-16	-12.214	-0	3.45874	10.8983	6.42304	2.32175e-15	11.8578	-1.62495e-15	-0	0	-0	-10.6832	1.44201	-6.55202	-9.81095e-17	-7.03397	-8.01169e-16	3.98865	1.32912	8.0731	-7.95139e-16	16.8381	-0	-0	0	-0
-2.61213	3.46701	3.47521	-73.0251	-3.80238	-85.3533	-14.5649	-27.0673	-10.5318	24.0464	-8.7857	-1.1909	-0	0	-0	9.32758	-31.2267	8.64173	-10.9285	38.2236	-70.1802	-57.7931	-19.4337	-6.69272e-15	7.45569	2.21059	16.4227	-2.39302	2.47822	-45.9735	-0	0	-0	-13.4657	14.1077	-45.5095	-0	0	-0	-4.50565	-26.3973	-4.71167	33.1026	16.9791	63.7247	27.5114	22.6091	4.30666e-15	-19.0231	5.90083	-16.6033	-3.33803	-3.43405	45.7631	-0	0	-0	12.2747	9.79983	38.0357	-0	0	-0	-6.31076	-26.8961	-8.57892	1.06847e-15	-12.2165	-0	2.02594	11.5384	5.89338	9.86408e-16	13.5254	-8.17821e-16	-0	0	-0	-10.9092	1.38	-6.22568	1.06732e-18	0.153816	-3.97571e-16	6.8843	0.0494355	11.5455	3.30054e-15	16.6755	1.66009e-15	-0	0	-0
-2.45571	3.44566	3.47888	-73.0978	-5.34624	-84.842	-14.9908	-26.9179	-10.2751	25.2808	-8.59982	-1.39361	-0	0	-0	9.10685	-31.1432	8.22839	-12.0385	37.6702	-69.6728	-59.5572	-19.2889	5.26518e-15	7.19327	2.12748	16.3906	-2.83119	2.91297	-45.78	-0	0	-0	-13.7153	14.1687	-45.0844	-0	0	-0	-4.4836	-26.0519	-4.84297	31.8703	17.4126	64.2853	25.2309	21.5502	3.4196e-15	-19.6472	5.90453	-16.0741	-3.29874	-3.46244	46.3378	-0	0	-0	12.5284	10.0748	38.2108	-0	0	-0	-7.43813	-28.2712	-8.58768	-7.95079e-16	-14.0443	4.0982e-16	1.20728	11.8716	5.03663	2.44584e-15	16.0663	-1.65491e-15	-0	0	-0	-8.50344	2.3941	-6.13098	4.11091e-16	-3.8914	1.99244e-16	4.62548	0.756596	9.67009	1.89776e-15	16.6118	-6.63814e-15	-0	0	-0
-2.2859	3.43217	3.49182	-72.8004	-7.54321	-84.7979	-15.733	-27.1666	-9.36296	26.7869	-8.61489	-1.64178	-0	0	-0	8.78835	-31.5349	7.43693	-12.7147	36.7127	-69.5781	-60.16	-19.5195	1.75579e-14	7.22897	2.12456	16.2922	-2.62848	2.75931	-46.3633	-0	0	-0	-13.8537	14.6939	-45.8068	-0	0	-0	-4.26723	-25.3631	-4.96059	30.9516	17.5281	64.6708	23.3493	20.5939	-3.39768e-15	-19.7333	6.09946	-16.4997	-3.27297	-3.45473	46.5038	-0	0	-0	12.6775	10.1444	38.061	-0	0	-0	-8.9759	-29.1521	-7.85249	4.3407e-15	-17.7283	2.50434e-15	0.735991	11.3959	3.302	1.17805e-15	19.6432	-2.32175e-15	-0	0	-0	-5.55522	2.17083	-5.71833	-1.39724e-15	-9.73054	-1.21012e-15	2.3873	-1.75206	7.72693	1.59028e-15	15.2506	-0	-0	0	-0
-2.11197	3.43637	3.51493	-72.3715	-9.84627	-85.7012	-15.4769	-28.1753	-6.8654	28.5239	-8.70333	-2.09624	-0	0	-0	8.2463	-32.1906	6.09455	-13.1966	36.003	-69.989	-58.6829	-20.3656	-6.57322e-15	6.78998	1.95049	15.9521	-3.09256	3.2304	-46.2096	-0	0	-0	-14.1178	14.6385	-45.1371	-0	0	-0	-4.59587	-24.7148	-5.51709	30.1573	18.2544	64.9398	22.0483	19.9098	-0	-19.3726	6.34909	-17.4589	-3.02423	-3.29454	47.4075	-0	0	-0	12.5043	10.272	38.8013	-0	0	-0	-8.80427	-28.7061	-4.81566	-3.97569e-16	-24.3817	-0	-1.28267	8.34972	-1.44771	-5.96352e-15	25.8543	-0	-0	0	-0	-5.99725	1.21835	-3.94481	1.16254e-15	-14.3017	1.48728e-15	0.694249	-2.04376	4.91777	1.73505e-15	10.3191	-8.08212e-16	-0	0	-0
-1.93867	3.44887	3.54182	-71.8919	-11.6201	-86.5754	-14.1521	-29.2911	-4.4895	30.6404	-8.31487	-1.61828	-0	0	-0	8.18097	-33.1368	5.86589	-13.3892	35.3837	-71.3757	-55.9799	-21.6557	-1.11218e-14	6.91056	1.95634	15.732	-2.52481	2.61275	-45.9463	-0	0	-0	-14.1333	14.3728	-44.5912	-0	0	-0	-4.9087	-24.1733	-6.56589	30.4358	18.6945	65.1659	22.2524	20.3948	-1.69663e-15	-19.3308	6.50233	-17.8915	-3.11282	-3.36467	47.1812	-0	0	-0	12.8974	10.4737	38.4453	-0	0	-0	-4.91773	-25.2044	0.647731	1.19616e-15	-35.7101	4.77388e-15	-6.4526	0.242634	-4.38671	-4.63248e-15	36.5432	1.97941e-15	-0	0	-0	-8.48163	-1.02523	-2.28626	1.9815e-17	-16.6968	1.45274e-15	1.47079	0.0660109	1.49661	6.74103e-17	6.44921	-6.0015e-16	-0	0	-0
-1.77578	3.46103	3.55893	-71.6303	-13.7022	-86.8066	-12.7307	-29.8738	-2.67996	32.2066	-7.79851	-0.995844	-0	0	-0	7.81864	-33.8617	5.65122	-13.7336	34.289	-72.3735	-52.9007	-23.1454	6.91791e-15	7.29116	2.02969	15.4738	-1.95965	2.00856	-45.6945	-0	0	-0	-13.6989	14.1574	-45.0979	-0	0	-0	-5.05859	-23.896	-7.64762	31.1643	18.854	64.8815	23.5898	20.2412	-8.47476e-16	-18.6636	6.03028	-17.2768	-2.88704	-3.13738	47.3374	-0	0	-0	13.3419	10.5042	37.5495	-0	0	-0	-3.34994	-19.3126	4.26716	-5.06008e-16	-48.2703	3.58377e-15	-9.75372	-7.8924	-5.45435	-1.02474e-14	34.7521	1.93552e-15	-0	0	-0	-11.8354	-4.22423	-1.74913	-1.01087e-16	-16.6096	1.0372e-15	2.31429	3.16147	-1.10053	-2.57992e-17	4.24144	3.48829e-16	-0	0	-0
-1.63168	3.47857	3.55292	-71.1632	-15.662	-85.6854	-11.6229	-30.6022	-2.37747	33.2946	-7.19991	-0.793132	-0	0	-0	7.44793	-35.4752	4.79921	-14.8282	34.4715	-71.7296	-49.6061	-23.9661	1.74032e-15	7.36248	1.96105	14.8335	-2.31529	2.34596	-45.3527	-0	0	-0	-13.7945	14.1895	-44.9536	-0	0	-0	-4.93713	-23.6882	-8.0944	32.8632	18.912	63.075	25.4638	21.5525	-5.12948e-15	-17.9815	5.99807	-17.8455	-2.85316	-3.09628	47.3016	-0	0	-0	13.2855	10.2319	36.9557	-0	0	-0	-3.0411	-13.6003	4.9743	1.99328e-15	-58.4193	6.07326e-15	-5.8008	-6.49774	-5.54265	-1.59028e-15	24.5355	-0	-0	0	-0	-16.8512	-7.42496	-3.56179	1.24277e-15	-15.5461	9.28499e-16	5.1208	5.05785	-1.14997	-7.60253e-16	4.86358	-4.11475e-16	-0	0	-0
-1.49875	3.4955	3.53727	-70.9764	-16.8478	-84.2167	-10.1754	-30.9308	-2.76527	33.9966	-6.90339	-0.665664	-0	0	-0	7.37286	-36.4468	4.05773	-14.8571	34.1965	-71.7921	-46.3929	-24.5596	-3.49692e-15	7.66576	1.94943	14.1837	-3.28105	3.3019	-45.1341	-0	0	-0	-14.0926	14.4022	-44.7342	-0	0	-0	-4.47407	-22.925	-8.29239	33.8412	19.0866	61.4573	26.9419	22.5764	6.67375e-15	-16.7497	6.12609	-19.5239	-2.92734	-3.23066	47.7799	-0	0	-0	12.4677	9.89899	37.8656	-0	0	-0	-1.26017	-7.96051	4.72572	-9.54164e-15	-63.8785	-0	-0.526294	-3.30005	-1.52506	-2.14799e-15	19.3257	1.68524e-15	-0	0	-0	-19.2919	-9.96895	-5.52595	-1.57447e-15	-14.4353	-4.72109e-15	5.81456	6.38975	-0.323454	-7.75495e-16	5.6439	-1.99753e-16	-0	0	-0
-1.37229	3.51107	3.5124	-70.7833	-17.621	-82.7247	-8.2508	-31.2571	-3.01686	34.3036	-6.82964	-1.00834	-0	0	-0	7.52315	-36.8548	3.71718	-13.4333	33.9107	-73.328	-42.8465	-25.1506	-1.75684e-15	7.66508	1.96736	14.3106	-1.81024	1.89094	-46.2333	-0	0	-0	-12.8908	13.4901	-45.5466	-0	0	-0	-4.34734	-22.0646	-8.741	33.717	20.1495	60.3784	27.9619	23.0865	1.9124e-14	-15.4268	6.22438	-21.4503	-2.9665	-3.38167	48.6995	-0	0	-0	11.862	9.57433	38.3748	-0	0	-0	1.13961	-3.26909	3.92366	3.04127e-15	-64.4045	-3.68106e-15	-0.813318	-1.27713	-0.772883	-9.6527e-16	16.8826	3.3238e-15	-0	0	-0	-19.5474	-12.6459	-7.16788	1.54719e-17	-13.0144	5.10063e-16	4.80646	7.21224	1.01906	-8.41866e-16	6.70321	4.00306e-16	-0	0	-0
